<?xml version="1.0" encoding="UTF-8"?>
<svg width="301px" height="300px" viewBox="0 0 301 300" version="1.1" xmlns="http://www.w3.org/2000/svg" xmlns:xlink="http://www.w3.org/1999/xlink">
    <!-- Generator: Sketch 55.2 (78181) - https://sketchapp.com -->
    <title>Group 4</title>
    <desc>Created with Sketch.</desc>
    <g id="Page-1" stroke="none" stroke-width="1" fill="none" fill-rule="evenodd">
        <g id="Ziptab" transform="translate(-550.000000, -380.000000)" fill="#000000" fill-rule="nonzero">
            <g id="Group-4" transform="translate(550.000000, 380.000000)">
                <path d="M290.175,145.175 L269.875,145.175 C268.71,115.87 257,89.235 238.425,68.975 L252.8,54.6 L266.945,68.745 L274.015,61.675 L238.66,26.32 L231.59,33.39 L245.735,47.535 L231.365,61.905 C211.105,43.175 184.405,31.34 155,30.125 L155,10 L175,10 L175,0 L125,0 L125,10 L145,10 L145,30.125 C115.67,31.335 89.03,43.11 68.79,61.75 L54.57,47.53 L68.715,33.385 L61.645,26.315 L26.29,61.67 L33.36,68.74 L47.505,54.595 L61.73,68.82 C43.095,89.06 31.335,115.69 30.125,145 L10,145 L10,125 L-4.61852778e-14,125 L-4.61852778e-14,175 L10,175 L10,155 L30.125,155 C31.335,184.345 43.12,210.995 61.775,231.24 L47.49,245.525 L33.35,231.38 L26.28,238.45 L61.635,273.805 L68.705,266.735 L54.56,252.59 L68.845,238.305 C89.08,256.915 115.695,268.665 144.995,269.87 L144.995,290 L124.995,290 L124.995,300 L174.995,300 L174.995,290 L154.995,290 L154.995,269.875 C184.305,268.665 210.935,256.905 231.17,238.285 L245.48,252.595 L231.335,266.74 L238.405,273.81 L273.76,238.455 L266.69,231.385 L252.545,245.53 L238.235,231.22 C256.84,211.02 268.61,184.445 269.86,155.185 L290.165,155.185 L290.165,175.185 L300.165,175.185 L300.165,125.185 L290.165,125.185 L290.165,145.175 L290.175,145.175 Z M150,260 C89.345,260 40,210.655 40,150 C40,89.345 89.345,40 150,40 C210.655,40 260,89.345 260,150 C260,210.655 210.655,260 150,260 Z" id="Shape"></path>
                <path d="M150,125 C136.215,125 125,136.215 125,150 C125,163.785 136.215,175 150,175 C163.785,175 175,163.785 175,150 C175,136.215 163.785,125 150,125 Z M150,165 C141.73,165 135,158.27 135,150 C135,141.73 141.73,135 150,135 C158.27,135 165,141.73 165,150 C165,158.27 158.27,165 150,165 Z" id="Shape"></path>
                <path d="M150,50 C135.98,50 125,57.69 125,67.5 C125,76.11 133.455,83.075 145,84.655 L145,95 L155,95 L155,84.655 C166.545,83.075 175,76.105 175,67.5 C175,57.69 164.02,50 150,50 Z M150,75 C141.415,75 135,71.04 135,67.5 C135,63.96 141.415,60 150,60 C158.585,60 165,63.96 165,67.5 C165,71.04 158.585,75 150,75 Z" id="Shape"></path>
                <path d="M155,215.345 L155,205 L145,205 L145,215.345 C133.455,216.925 125,223.895 125,232.5 C125,242.31 135.98,250 150,250 C164.02,250 175,242.31 175,232.5 C175,223.89 166.545,216.925 155,215.345 Z M150,240 C141.415,240 135,236.04 135,232.5 C135,228.96 141.415,225 150,225 C158.585,225 165,228.96 165,232.5 C165,236.04 158.585,240 150,240 Z" id="Shape"></path>
                <path d="M84.655,155 L95,155 L95,145 L84.655,145 C83.075,133.455 76.105,125 67.5,125 C57.69,125 50,135.98 50,150 C50,164.02 57.69,175 67.5,175 C76.11,175 83.075,166.545 84.655,155 Z M67.5,165 C63.96,165 60,158.585 60,150 C60,141.415 63.96,135 67.5,135 C71.04,135 75,141.415 75,150 C75,158.585 71.04,165 67.5,165 Z" id="Shape"></path>
                <path d="M215.345,145 L205,145 L205,155 L215.345,155 C216.925,166.545 223.895,175 232.5,175 C242.31,175 250,164.02 250,150 C250,135.98 242.31,125 232.5,125 C223.89,125 216.925,133.455 215.345,145 Z M232.5,135 C236.04,135 240,141.415 240,150 C240,158.585 236.04,165 232.5,165 C228.96,165 225,158.585 225,150 C225,141.415 228.96,135 232.5,135 Z" id="Shape"></path>
                <path d="M112.785,89.04 C114.17,83.045 112.915,77.56 109.345,73.99 C109.345,73.99 109.345,73.99 109.345,73.99 C109.345,73.99 109.345,73.99 109.345,73.99 C105.775,70.42 100.29,69.165 94.295,70.55 C89.055,71.76 83.725,74.865 79.295,79.3 C74.865,83.735 71.755,89.06 70.545,94.3 C69.16,100.295 70.42,105.78 73.985,109.35 C76.605,111.97 80.255,113.345 84.385,113.345 C85.88,113.345 87.445,113.165 89.04,112.795 C92.86,111.915 96.72,110 100.25,107.325 L107.575,114.65 L114.645,107.58 L107.32,100.255 C109.995,96.715 111.905,92.86 112.785,89.04 Z M86.79,103.04 C84.225,103.63 82.14,103.355 81.06,102.265 C79.98,101.185 79.7,99.095 80.29,96.535 C81.07,93.145 83.285,89.435 86.365,86.355 C89.445,83.275 93.155,81.06 96.545,80.28 C97.425,80.075 98.25,79.975 98.995,79.975 C100.425,79.975 101.565,80.34 102.275,81.05 C102.275,81.05 102.275,81.05 102.275,81.05 C103.355,82.13 103.635,84.22 103.045,86.78 C102.265,90.17 100.05,93.88 96.97,96.96 C93.89,100.04 90.18,102.26 86.79,103.04 Z" id="Shape"></path>
                <path d="M210.96,187.215 C207.14,188.095 203.28,190.005 199.75,192.685 L192.425,185.36 L185.355,192.43 L192.68,199.755 C190.005,203.285 188.09,207.145 187.21,210.965 C185.825,216.96 187.08,222.445 190.65,226.015 C190.65,226.015 190.65,226.015 190.65,226.015 C190.65,226.015 190.65,226.015 190.65,226.015 C193.27,228.635 196.92,230.005 201.045,230.005 C202.54,230.005 204.105,229.825 205.7,229.455 C210.94,228.245 216.27,225.14 220.7,220.705 C225.13,216.27 228.24,210.945 229.45,205.705 C230.835,199.71 229.575,194.225 226.01,190.655 C222.445,187.085 216.96,185.83 210.96,187.215 Z M219.715,203.46 C218.935,206.85 216.72,210.56 213.64,213.64 C210.56,216.72 206.85,218.935 203.46,219.715 C200.89,220.31 198.805,220.025 197.73,218.945 C197.73,218.945 197.73,218.945 197.73,218.945 C196.65,217.865 196.37,215.775 196.96,213.215 C197.74,209.825 199.955,206.115 203.035,203.035 C206.115,199.955 209.825,197.74 213.215,196.96 C214.095,196.755 214.92,196.655 215.665,196.655 C217.095,196.655 218.235,197.02 218.945,197.73 C220.025,198.81 220.305,200.9 219.715,203.46 Z" id="Shape"></path>
                <path d="M107.575,185.355 L100.25,192.68 C96.72,190.005 92.86,188.095 89.04,187.21 C83.045,185.83 77.56,187.08 73.99,190.65 C73.99,190.65 73.99,190.65 73.99,190.65 C73.99,190.65 73.99,190.65 73.99,190.65 C70.42,194.22 69.165,199.71 70.55,205.7 C71.76,210.94 74.865,216.27 79.3,220.7 C83.735,225.13 89.06,228.24 94.3,229.45 C95.895,229.82 97.455,230 98.955,230 C103.08,230 106.73,228.63 109.35,226.01 C112.92,222.44 114.18,216.95 112.795,210.955 C111.915,207.135 110.005,203.275 107.325,199.745 L114.65,192.42 L107.575,185.355 Z M102.27,218.945 C101.195,220.025 99.11,220.305 96.54,219.715 C93.15,218.935 89.44,216.72 86.36,213.64 C83.28,210.56 81.065,206.85 80.285,203.46 C79.695,200.9 79.975,198.81 81.055,197.73 C81.055,197.73 81.055,197.73 81.055,197.73 C81.765,197.02 82.905,196.655 84.335,196.655 C85.08,196.655 85.905,196.755 86.785,196.96 C90.175,197.74 93.885,199.955 96.965,203.035 C100.045,206.115 102.26,209.825 103.04,213.215 C103.635,215.77 103.35,217.86 102.27,218.945 Z" id="Shape"></path>
                <path d="M205.71,70.54 C199.72,69.155 194.235,70.41 190.66,73.98 C187.09,77.55 185.83,83.04 187.215,89.035 C188.095,92.855 190.01,96.715 192.685,100.245 L185.36,107.57 L192.43,114.64 L199.755,107.315 C203.285,109.99 207.145,111.905 210.965,112.785 C212.56,113.155 214.12,113.335 215.62,113.335 C219.745,113.335 223.395,111.965 226.015,109.345 C226.015,109.345 226.015,109.345 226.015,109.345 C226.015,109.345 226.015,109.345 226.015,109.345 C229.585,105.775 230.84,100.285 229.455,94.295 C228.245,89.055 225.14,83.725 220.705,79.295 C216.27,74.865 210.95,71.75 205.71,70.54 Z M218.945,102.27 C218.945,102.27 218.945,102.27 218.945,102.27 C217.865,103.355 215.78,103.63 213.215,103.045 C209.825,102.265 206.115,100.05 203.035,96.97 C199.955,93.89 197.74,90.18 196.96,86.79 C196.37,84.23 196.65,82.14 197.735,81.06 C198.445,80.35 199.585,79.985 201.015,79.985 C201.76,79.985 202.585,80.085 203.465,80.29 C206.855,81.07 210.565,83.285 213.645,86.365 C216.725,89.445 218.94,93.155 219.72,96.545 C220.305,99.1 220.025,101.19 218.945,102.27 Z" id="Shape"></path>
            </g>
        </g>
    </g>
</svg>