<?xml version="1.0" ?><svg viewBox="0 0 64 64" xmlns="http://www.w3.org/2000/svg"><title/><g data-name="27-Lung" id="_27-Lung"><path d="M19.3,18h.17a7.727,7.727,0,0,1,7.224,5.817A8.4,8.4,0,0,1,27,26.05v17.3a11.977,11.977,0,0,1-7.9,11.39l-7.36,2.54A12.877,12.877,0,0,1,7.48,58H5.81a1.452,1.452,0,0,1-.159-.015C4.826,57.871,1,56.814,1,47,1,35,13.52,18,19.3,18Z" style="fill:#e7544c"/><path d="M43.41,44.59A1.955,1.955,0,0,0,42,44a2,2,0,1,0,2,2A1.955,1.955,0,0,0,43.41,44.59ZM51,35a2,2,0,1,0-2-2A2.006,2.006,0,0,0,51,35ZM44.7,18C50.48,18,63,35,63,47c0,11-4.81,11-4.81,11H56.52a12.877,12.877,0,0,1-4.26-.72L44.9,54.74A11.977,11.977,0,0,1,37,43.35V35.5l2.66,1.33A1.618,1.618,0,0,0,42,35.38a3.858,3.858,0,0,0-2.13-3.45L37,30.5V26.05A7.876,7.876,0,0,1,44.53,18ZM57,44a1,1,0,1,0,1-1A1,1,0,0,0,57,44Z" style="fill:#e7544c"/><path d="M60.52,53a12.877,12.877,0,0,1-4.26-.72L48.9,49.74A11.977,11.977,0,0,1,41,38.35V21.05a8.4,8.4,0,0,1,.306-2.233A8.118,8.118,0,0,0,37,26.05v17.3a11.977,11.977,0,0,0,7.9,11.39l7.36,2.54a12.877,12.877,0,0,0,4.26.72h1.67s2.845-.006,4.159-5.015A1.452,1.452,0,0,1,62.19,53Z" style="fill:#c74841"/><path d="M3.48,53a12.877,12.877,0,0,0,4.26-.72l7.36-2.54A11.977,11.977,0,0,0,23,38.35V21.05a8.4,8.4,0,0,0-.306-2.233A8.118,8.118,0,0,1,27,26.05v17.3a11.977,11.977,0,0,1-7.9,11.39l-7.36,2.54A12.877,12.877,0,0,1,7.48,58H5.81s-2.845-.006-4.159-5.015A1.452,1.452,0,0,0,1.81,53Z" style="fill:#c74841"/><circle cx="6" cy="45" r="1" style="fill:#34c1ad"/><circle cx="13" cy="34" r="2" style="fill:#34c1ad"/><circle cx="58" cy="44" r="1" style="fill:#34c1ad"/><circle cx="51" cy="33" r="2" style="fill:#34c1ad"/><path d="M14.83,15.83A4.008,4.008,0,1,1,16,13,4.025,4.025,0,0,1,14.83,15.83Z" style="fill:#34c1ad"/><path d="M21.61,18.36A11.007,11.007,0,0,1,12,24c-.34,0-.67-.02-1-.05a10.986,10.986,0,1,1,10.61-5.59ZM12,17a3.995,3.995,0,1,0-2.83-1.17A4.025,4.025,0,0,0,12,17Z" style="fill:#f5f5f5"/><path d="M37,30.5l2.87,1.43A3.858,3.858,0,0,1,42,35.38a1.618,1.618,0,0,1-2.34,1.45L37,35.5,34,34H30l-3,1.5-2.66,1.33A1.618,1.618,0,0,1,22,35.38a3.858,3.858,0,0,1,2.13-3.45L27,30.5,30,29V8h4V29Z" style="fill:#ff5d54"/><path d="M40.38,35a1.622,1.622,0,0,1-.72-.17L37,33.5,34,32H30l-3,1.5-2.66,1.33a1.622,1.622,0,0,1-.72.17,1.606,1.606,0,0,1-1.414-.84A3.833,3.833,0,0,0,22,35.38a1.618,1.618,0,0,0,2.34,1.45L27,35.5,30,34h4l3,1.5,2.66,1.33A1.618,1.618,0,0,0,42,35.38a3.833,3.833,0,0,0-.206-1.22A1.606,1.606,0,0,1,40.38,35Z" style="fill:#e7544c"/><path d="M20.991,45.284,19.5,43.793V39.4l2.791-1.993a.5.5,0,0,0-.582-.814l-2.678,1.913c-.011,0-.02-.006-.031-.006H13.5V36a.38.38,0,0,0-.014-.067,1.8,1.8,0,0,1-.972,0A.38.38,0,0,0,12.5,36v3a.5.5,0,0,0,.5.5h4.639l-2.8,2H10.151L7.277,39.584a.5.5,0,0,0-.554.832l2.492,1.662L7.646,43.646a.5.5,0,0,0,.708.708L10.207,42.5H14.5v5H8a.5.5,0,0,0-.416.223l-2,3a.5.5,0,0,0,.139.693.5.5,0,0,0,.693-.139L8.268,48.5H14.5v3.232l-2.777,1.852A.5.5,0,0,0,12,54.5a.494.494,0,0,0,.277-.084l3-2A.5.5,0,0,0,15.5,52V42.257l3-2.143V44a.5.5,0,0,0,.146.354l1.638,1.637a1.894,1.894,0,0,1,.707-.707Z" style="fill:#f2c4b2"/><path d="M58.416,49.723l-2-3A.5.5,0,0,0,56,46.5H49.5v-5H54a.5.5,0,0,0,.277-.084l3-2a.5.5,0,0,0-.554-.832L53.849,40.5H49.161l-2.8-2H51a.5.5,0,0,0,.5-.5V35a.38.38,0,0,0-.014-.067,1.8,1.8,0,0,1-.972,0A.38.38,0,0,0,50.5,35v2.5H45c-.011,0-.02.005-.031.006l-2.678-1.913a.487.487,0,0,0-.3-.084,1.6,1.6,0,0,1-.322.851.489.489,0,0,0,.044.047L44.5,38.4v4.393l-1.491,1.491a1.894,1.894,0,0,1,.707.707l1.638-1.637A.5.5,0,0,0,45.5,43V39.114l3,2.143V51a.5.5,0,0,0,.223.416l3,2a.5.5,0,0,0,.693-.139.5.5,0,0,0-.139-.693L49.5,50.732V47.5h6.232l1.852,2.777a.5.5,0,0,0,.832-.554Z" style="fill:#f2c4b2"/><circle cx="56" cy="35" r="1" style="fill:#34c1ad"/><circle cx="44" cy="30" r="1" style="fill:#34c1ad"/><circle cx="20" cy="31" r="1" style="fill:#34c1ad"/><circle cx="14" cy="27" r="1" style="fill:#34c1ad"/><circle cx="8" cy="36" r="1" style="fill:#34c1ad"/><circle cx="50" cy="26" r="1" style="fill:#34c1ad"/><path d="M22,45a2,2,0,1,1-2,2,2.015,2.015,0,0,1,2-2Z" style="fill:#107c82"/><path d="M43.41,44.59A1.955,1.955,0,0,1,44,46a2,2,0,1,1-2-2A1.955,1.955,0,0,1,43.41,44.59Z" style="fill:#107c82"/><circle cx="18" cy="51" r="1" style="fill:#107c82"/><circle cx="8" cy="55" r="1" style="fill:#107c82"/><circle cx="46" cy="50" r="1" style="fill:#107c82"/><circle cx="56" cy="54" r="1" style="fill:#107c82"/><path d="M12,2a11,11,0,0,0-1,21.95c.33.03.66.05,1,.05A11,11,0,0,0,12,2Zm0,21A10,10,0,1,1,22,13,10,10,0,0,1,12,23Z" style="fill:#13969d"/><path d="M11.12,8.179a12.683,12.683,0,0,0,.459-1.891V5.421a.421.421,0,0,1,.842,0v.867a12.683,12.683,0,0,0,.459,1.891,4.868,4.868,0,0,1,1.971.838A7.418,7.418,0,0,0,16.691,7.8l.471-.472v0a.775.775,0,1,1,.775.771h-.009l-.471.471a7.683,7.683,0,0,0-1.255,1.92,4.879,4.879,0,0,1,.619,1.634,12.683,12.683,0,0,0,1.891.459h.867a.421.421,0,0,1,0,.842h-.867a12.683,12.683,0,0,0-1.891.459,4.879,4.879,0,0,1-.619,1.634,7.683,7.683,0,0,0,1.255,1.92l.471.471h.009a.773.773,0,1,1-.775.771v0l-.471-.472a7.418,7.418,0,0,0-1.84-1.217,4.868,4.868,0,0,1-1.971.838,12.683,12.683,0,0,0-.459,1.891v.867a.421.421,0,0,1-.842,0v-.867a12.683,12.683,0,0,0-.459-1.891,4.868,4.868,0,0,1-1.971-.838A7.418,7.418,0,0,0,7.309,18.2l-.471.472v0a.775.775,0,1,1-.775-.771h.009l.471-.471A7.683,7.683,0,0,0,7.8,15.514a4.879,4.879,0,0,1-.619-1.634,12.683,12.683,0,0,0-1.891-.459H4.421a.421.421,0,1,1,0-.842h.867a12.683,12.683,0,0,0,1.891-.459A4.879,4.879,0,0,1,7.8,10.486a7.683,7.683,0,0,0-1.255-1.92L6.072,8.1H6.063a.775.775,0,0,1-.775-.771.666.666,0,0,1,.017-.156.774.774,0,0,1,1.533.156v0l.471.472a7.418,7.418,0,0,0,1.84,1.217A4.868,4.868,0,0,1,11.12,8.179Z" style="fill:#34c1ad"/><circle cx="12" cy="13" r="4" style="fill:#13969d"/><circle cx="10" cy="12" r="1" style="fill:#107c82"/><circle cx="12.5" cy="11.5" r="0.5" style="fill:#107c82"/><circle cx="13" cy="15" r="1" style="fill:#107c82"/></g></svg>